<mxfile host="app.diagrams.net" modified="2020-10-30T15:56:05.285Z" agent="5.0 (Windows NT 10.0; Win64; x64) AppleWebKit/537.36 (KHTML, like Gecko) Chrome/86.0.4240.111 Safari/537.36" etag="jxNPtZ5zO14wxBV_B1al" version="13.8.8" type="github">
  <diagram id="JJq8KRUSb-bCj2OKKWda" name="Page-1">
    <mxGraphModel dx="1422" dy="762" grid="1" gridSize="10" guides="1" tooltips="1" connect="1" arrows="1" fold="1" page="1" pageScale="1" pageWidth="850" pageHeight="1100" math="0" shadow="0">
      <root>
        <mxCell id="0" />
        <mxCell id="1" parent="0" />
        <mxCell id="tPXoXflb5P6Q86PlPwlJ-62" style="edgeStyle=orthogonalEdgeStyle;rounded=0;orthogonalLoop=1;jettySize=auto;html=1;startArrow=classic;startFill=1;entryX=0.59;entryY=1;entryDx=0;entryDy=0;entryPerimeter=0;" edge="1" parent="1" source="tPXoXflb5P6Q86PlPwlJ-60" target="tPXoXflb5P6Q86PlPwlJ-35">
          <mxGeometry relative="1" as="geometry" />
        </mxCell>
        <mxCell id="tPXoXflb5P6Q86PlPwlJ-4" value="" style="group" vertex="1" connectable="0" parent="1">
          <mxGeometry x="600" y="60" width="120" height="60" as="geometry" />
        </mxCell>
        <mxCell id="tPXoXflb5P6Q86PlPwlJ-2" value="" style="rounded=1;whiteSpace=wrap;html=1;" vertex="1" parent="tPXoXflb5P6Q86PlPwlJ-4">
          <mxGeometry width="120" height="60" as="geometry" />
        </mxCell>
        <mxCell id="tPXoXflb5P6Q86PlPwlJ-3" value="POS API&lt;br&gt;(Kiosks)" style="text;html=1;strokeColor=none;fillColor=none;align=center;verticalAlign=middle;whiteSpace=wrap;rounded=0;" vertex="1" parent="tPXoXflb5P6Q86PlPwlJ-4">
          <mxGeometry x="30" y="20" width="70" height="20" as="geometry" />
        </mxCell>
        <mxCell id="tPXoXflb5P6Q86PlPwlJ-10" value="" style="group" vertex="1" connectable="0" parent="1">
          <mxGeometry x="140" y="60" width="120" height="60" as="geometry" />
        </mxCell>
        <mxCell id="tPXoXflb5P6Q86PlPwlJ-5" value="" style="rounded=1;whiteSpace=wrap;html=1;" vertex="1" parent="tPXoXflb5P6Q86PlPwlJ-10">
          <mxGeometry width="120" height="60" as="geometry" />
        </mxCell>
        <mxCell id="tPXoXflb5P6Q86PlPwlJ-6" value="Smart Fridge&lt;br&gt;API" style="text;html=1;strokeColor=none;fillColor=none;align=center;verticalAlign=middle;whiteSpace=wrap;rounded=0;" vertex="1" parent="tPXoXflb5P6Q86PlPwlJ-10">
          <mxGeometry x="40" y="20" width="40" height="20" as="geometry" />
        </mxCell>
        <mxCell id="tPXoXflb5P6Q86PlPwlJ-16" style="edgeStyle=orthogonalEdgeStyle;rounded=0;orthogonalLoop=1;jettySize=auto;html=1;entryX=0.5;entryY=1;entryDx=0;entryDy=0;exitX=0.5;exitY=0;exitDx=0;exitDy=0;" edge="1" parent="1" source="tPXoXflb5P6Q86PlPwlJ-29" target="tPXoXflb5P6Q86PlPwlJ-2">
          <mxGeometry relative="1" as="geometry">
            <mxPoint x="660" y="200" as="sourcePoint" />
          </mxGeometry>
        </mxCell>
        <mxCell id="tPXoXflb5P6Q86PlPwlJ-17" style="edgeStyle=orthogonalEdgeStyle;rounded=0;orthogonalLoop=1;jettySize=auto;html=1;entryX=0.5;entryY=1;entryDx=0;entryDy=0;exitX=0.5;exitY=0;exitDx=0;exitDy=0;" edge="1" parent="1" source="tPXoXflb5P6Q86PlPwlJ-22" target="tPXoXflb5P6Q86PlPwlJ-5">
          <mxGeometry relative="1" as="geometry">
            <mxPoint x="190" y="160" as="sourcePoint" />
          </mxGeometry>
        </mxCell>
        <mxCell id="tPXoXflb5P6Q86PlPwlJ-18" value="" style="shape=cylinder3;whiteSpace=wrap;html=1;boundedLbl=1;backgroundOutline=1;size=15;" vertex="1" parent="1">
          <mxGeometry x="390" y="310" width="60" height="80" as="geometry" />
        </mxCell>
        <mxCell id="tPXoXflb5P6Q86PlPwlJ-19" value="DB" style="text;html=1;strokeColor=none;fillColor=none;align=center;verticalAlign=middle;whiteSpace=wrap;rounded=0;" vertex="1" parent="1">
          <mxGeometry x="405" y="350" width="40" height="20" as="geometry" />
        </mxCell>
        <mxCell id="tPXoXflb5P6Q86PlPwlJ-20" style="edgeStyle=orthogonalEdgeStyle;rounded=0;orthogonalLoop=1;jettySize=auto;html=1;entryX=0;entryY=0.5;entryDx=0;entryDy=0;entryPerimeter=0;exitX=1;exitY=0.5;exitDx=0;exitDy=0;" edge="1" parent="1" source="tPXoXflb5P6Q86PlPwlJ-22" target="tPXoXflb5P6Q86PlPwlJ-18">
          <mxGeometry relative="1" as="geometry">
            <mxPoint x="250" y="200" as="sourcePoint" />
          </mxGeometry>
        </mxCell>
        <mxCell id="tPXoXflb5P6Q86PlPwlJ-21" style="edgeStyle=orthogonalEdgeStyle;rounded=0;orthogonalLoop=1;jettySize=auto;html=1;entryX=1;entryY=0.5;entryDx=0;entryDy=0;entryPerimeter=0;exitX=0;exitY=0.5;exitDx=0;exitDy=0;" edge="1" parent="1" source="tPXoXflb5P6Q86PlPwlJ-29" target="tPXoXflb5P6Q86PlPwlJ-18">
          <mxGeometry relative="1" as="geometry">
            <mxPoint x="620" y="240" as="sourcePoint" />
          </mxGeometry>
        </mxCell>
        <mxCell id="tPXoXflb5P6Q86PlPwlJ-28" value="" style="group" vertex="1" connectable="0" parent="1">
          <mxGeometry x="570" y="210" width="210" height="60" as="geometry" />
        </mxCell>
        <mxCell id="tPXoXflb5P6Q86PlPwlJ-58" value="" style="group" vertex="1" connectable="0" parent="tPXoXflb5P6Q86PlPwlJ-28">
          <mxGeometry x="-15" width="210" height="60" as="geometry" />
        </mxCell>
        <mxCell id="tPXoXflb5P6Q86PlPwlJ-67" value="" style="group" vertex="1" connectable="0" parent="tPXoXflb5P6Q86PlPwlJ-58">
          <mxGeometry width="210" height="60" as="geometry" />
        </mxCell>
        <mxCell id="tPXoXflb5P6Q86PlPwlJ-29" value="" style="shape=process;whiteSpace=wrap;html=1;backgroundOutline=1;" vertex="1" parent="tPXoXflb5P6Q86PlPwlJ-67">
          <mxGeometry width="210" height="60" as="geometry" />
        </mxCell>
        <mxCell id="tPXoXflb5P6Q86PlPwlJ-66" value="Order/Inventory Data&lt;br&gt;Serverless Processor&lt;br&gt;(Poll api on a given interval)" style="text;html=1;strokeColor=none;fillColor=none;align=center;verticalAlign=middle;whiteSpace=wrap;rounded=0;" vertex="1" parent="tPXoXflb5P6Q86PlPwlJ-67">
          <mxGeometry x="18.75" y="20" width="172.5" height="20" as="geometry" />
        </mxCell>
        <mxCell id="tPXoXflb5P6Q86PlPwlJ-33" value="" style="group" vertex="1" connectable="0" parent="1">
          <mxGeometry x="150" y="210" width="200" height="60" as="geometry" />
        </mxCell>
        <mxCell id="tPXoXflb5P6Q86PlPwlJ-59" value="" style="group" vertex="1" connectable="0" parent="tPXoXflb5P6Q86PlPwlJ-33">
          <mxGeometry x="-60" width="260" height="60" as="geometry" />
        </mxCell>
        <mxCell id="tPXoXflb5P6Q86PlPwlJ-68" value="" style="group" vertex="1" connectable="0" parent="tPXoXflb5P6Q86PlPwlJ-59">
          <mxGeometry width="220" height="60" as="geometry" />
        </mxCell>
        <mxCell id="tPXoXflb5P6Q86PlPwlJ-22" value="" style="shape=process;whiteSpace=wrap;html=1;backgroundOutline=1;" vertex="1" parent="tPXoXflb5P6Q86PlPwlJ-68">
          <mxGeometry width="220" height="60" as="geometry" />
        </mxCell>
        <mxCell id="tPXoXflb5P6Q86PlPwlJ-8" value="Order/Inventory Data&lt;br&gt;Serverless Processor&lt;br&gt;(Poll api on a given interval)" style="text;html=1;strokeColor=none;fillColor=none;align=center;verticalAlign=middle;whiteSpace=wrap;rounded=0;" vertex="1" parent="tPXoXflb5P6Q86PlPwlJ-68">
          <mxGeometry x="27.5" y="20" width="172.5" height="20" as="geometry" />
        </mxCell>
        <mxCell id="tPXoXflb5P6Q86PlPwlJ-39" style="edgeStyle=orthogonalEdgeStyle;rounded=0;orthogonalLoop=1;jettySize=auto;html=1;entryX=0.5;entryY=1;entryDx=0;entryDy=0;entryPerimeter=0;startArrow=classic;startFill=1;" edge="1" parent="1" source="tPXoXflb5P6Q86PlPwlJ-35" target="tPXoXflb5P6Q86PlPwlJ-18">
          <mxGeometry relative="1" as="geometry" />
        </mxCell>
        <mxCell id="tPXoXflb5P6Q86PlPwlJ-37" value="Text" style="text;html=1;strokeColor=none;fillColor=none;align=center;verticalAlign=middle;whiteSpace=wrap;rounded=0;" vertex="1" parent="1">
          <mxGeometry x="400" y="340" width="40" height="20" as="geometry" />
        </mxCell>
        <mxCell id="tPXoXflb5P6Q86PlPwlJ-40" value="" style="group" vertex="1" connectable="0" parent="1">
          <mxGeometry x="30" y="460" width="840" height="130" as="geometry" />
        </mxCell>
        <mxCell id="tPXoXflb5P6Q86PlPwlJ-57" value="" style="group" vertex="1" connectable="0" parent="tPXoXflb5P6Q86PlPwlJ-40">
          <mxGeometry y="-20" width="780" height="130" as="geometry" />
        </mxCell>
        <mxCell id="tPXoXflb5P6Q86PlPwlJ-35" value="" style="rounded=0;whiteSpace=wrap;html=1;" vertex="1" parent="tPXoXflb5P6Q86PlPwlJ-57">
          <mxGeometry width="780" height="110" as="geometry" />
        </mxCell>
        <mxCell id="tPXoXflb5P6Q86PlPwlJ-56" value="&lt;h1&gt;API&lt;/h1&gt;&lt;p&gt;Handles subscriptions and food availability&lt;/p&gt;" style="text;html=1;strokeColor=none;fillColor=none;spacing=5;spacingTop=-20;whiteSpace=wrap;overflow=hidden;rounded=0;" vertex="1" parent="tPXoXflb5P6Q86PlPwlJ-57">
          <mxGeometry x="290" y="10" width="190" height="120" as="geometry" />
        </mxCell>
        <mxCell id="tPXoXflb5P6Q86PlPwlJ-52" style="edgeStyle=orthogonalEdgeStyle;rounded=0;orthogonalLoop=1;jettySize=auto;html=1;exitX=0;exitY=0.75;exitDx=0;exitDy=0;entryX=0;entryY=0;entryDx=70;entryDy=80;entryPerimeter=0;startArrow=classic;startFill=1;" edge="1" parent="1" source="tPXoXflb5P6Q86PlPwlJ-41" target="tPXoXflb5P6Q86PlPwlJ-51">
          <mxGeometry relative="1" as="geometry" />
        </mxCell>
        <mxCell id="tPXoXflb5P6Q86PlPwlJ-63" style="edgeStyle=orthogonalEdgeStyle;rounded=0;orthogonalLoop=1;jettySize=auto;html=1;entryX=0.5;entryY=1;entryDx=0;entryDy=0;startArrow=classic;startFill=1;exitX=1;exitY=0.75;exitDx=0;exitDy=0;" edge="1" parent="1" source="tPXoXflb5P6Q86PlPwlJ-41" target="tPXoXflb5P6Q86PlPwlJ-60">
          <mxGeometry relative="1" as="geometry" />
        </mxCell>
        <mxCell id="tPXoXflb5P6Q86PlPwlJ-41" value="" style="shape=actor;whiteSpace=wrap;html=1;" vertex="1" parent="1">
          <mxGeometry x="335" y="850" width="40" height="60" as="geometry" />
        </mxCell>
        <mxCell id="tPXoXflb5P6Q86PlPwlJ-53" style="edgeStyle=orthogonalEdgeStyle;rounded=0;orthogonalLoop=1;jettySize=auto;html=1;entryX=0.114;entryY=1;entryDx=0;entryDy=0;entryPerimeter=0;startArrow=classic;startFill=1;" edge="1" parent="1" source="tPXoXflb5P6Q86PlPwlJ-51" target="tPXoXflb5P6Q86PlPwlJ-35">
          <mxGeometry relative="1" as="geometry" />
        </mxCell>
        <mxCell id="tPXoXflb5P6Q86PlPwlJ-55" value="" style="group" vertex="1" connectable="0" parent="1">
          <mxGeometry x="60" y="630" width="120" height="80" as="geometry" />
        </mxCell>
        <mxCell id="tPXoXflb5P6Q86PlPwlJ-51" value="" style="shape=cube;whiteSpace=wrap;html=1;boundedLbl=1;backgroundOutline=1;darkOpacity=0.05;darkOpacity2=0.1;" vertex="1" parent="tPXoXflb5P6Q86PlPwlJ-55">
          <mxGeometry width="120" height="80" as="geometry" />
        </mxCell>
        <mxCell id="tPXoXflb5P6Q86PlPwlJ-54" value="SMS Server" style="text;html=1;strokeColor=none;fillColor=none;align=center;verticalAlign=middle;whiteSpace=wrap;rounded=0;" vertex="1" parent="tPXoXflb5P6Q86PlPwlJ-55">
          <mxGeometry x="40" y="34.5" width="40" height="20" as="geometry" />
        </mxCell>
        <mxCell id="tPXoXflb5P6Q86PlPwlJ-65" value="" style="group" vertex="1" connectable="0" parent="1">
          <mxGeometry x="240" y="626.75" width="500" height="83.25" as="geometry" />
        </mxCell>
        <mxCell id="tPXoXflb5P6Q86PlPwlJ-60" value="" style="rounded=0;whiteSpace=wrap;html=1;" vertex="1" parent="tPXoXflb5P6Q86PlPwlJ-65">
          <mxGeometry width="500" height="83.25" as="geometry" />
        </mxCell>
        <mxCell id="tPXoXflb5P6Q86PlPwlJ-42" value="" style="aspect=fixed;pointerEvents=1;shadow=0;dashed=0;html=1;strokeColor=none;labelPosition=center;verticalLabelPosition=bottom;verticalAlign=top;align=center;fillColor=#00188D;shape=mxgraph.mscae.enterprise.android_phone" vertex="1" parent="tPXoXflb5P6Q86PlPwlJ-65">
          <mxGeometry x="135" y="18.25" width="30" height="50" as="geometry" />
        </mxCell>
        <mxCell id="tPXoXflb5P6Q86PlPwlJ-43" value="" style="aspect=fixed;pointerEvents=1;shadow=0;dashed=0;html=1;strokeColor=none;labelPosition=center;verticalLabelPosition=bottom;verticalAlign=top;align=center;fillColor=#00188D;shape=mxgraph.mscae.enterprise.app_generic" vertex="1" parent="tPXoXflb5P6Q86PlPwlJ-65">
          <mxGeometry x="370" y="18.25" width="50" height="39" as="geometry" />
        </mxCell>
        <mxCell id="tPXoXflb5P6Q86PlPwlJ-44" value="" style="aspect=fixed;pointerEvents=1;shadow=0;dashed=0;html=1;strokeColor=none;labelPosition=center;verticalLabelPosition=bottom;verticalAlign=top;align=center;fillColor=#00188D;shape=mxgraph.mscae.enterprise.application" vertex="1" parent="tPXoXflb5P6Q86PlPwlJ-65">
          <mxGeometry x="240" y="23.75" width="50" height="34" as="geometry" />
        </mxCell>
        <mxCell id="tPXoXflb5P6Q86PlPwlJ-61" value="&lt;font style=&quot;font-size: 18px&quot;&gt;Clients&lt;/font&gt;" style="text;html=1;strokeColor=none;fillColor=none;align=center;verticalAlign=middle;whiteSpace=wrap;rounded=0;" vertex="1" parent="tPXoXflb5P6Q86PlPwlJ-65">
          <mxGeometry x="30" y="37.25" width="40" height="20" as="geometry" />
        </mxCell>
      </root>
    </mxGraphModel>
  </diagram>
</mxfile>
